<svg width="305" height="307" viewBox="0 0 305 307" fill="none" xmlns="http://www.w3.org/2000/svg">
<path d="M135.799 305.9C106.899 303.4 73.5991 288.5 52.0991 268.5C37.8991 255.4 28.2991 243.3 19.7991 228.1C-8.20087 177.7 -4.70087 113 28.5991 65.2995C39.7991 49.0995 53.3991 35.1995 66.3991 26.5995C81.9991 16.2995 105.999 6.59952 124.999 2.99952C158.399 -3.50048 189.099 1.09952 222.499 17.6995C241.599 27.0995 253.999 36.8995 268.499 53.9995C274.999 61.5995 284.999 75.8995 284.999 77.4995C284.999 77.7995 286.999 82.2995 289.499 87.4995C295.099 99.0995 299.299 111.9 302.199 125.8C304.899 139.2 305.199 165.6 302.699 179C298.799 199.9 295.799 208.7 286.399 227C279.499 240.5 273.099 249 259.999 262C246.999 275.1 238.499 281.5 224.999 288.4C194.699 304 169.599 308.9 135.799 305.9ZM141.799 286.1C148.099 276.4 159.799 264.3 174.599 252.2C197.799 233.2 207.599 218.8 211.599 198C214.299 184.4 212.799 157 209.099 150.3C208.499 149.3 206.399 144.6 204.399 139.8C202.399 135 200.199 130.6 199.399 129.9C197.499 128.4 197.599 129.6 199.599 137.3C200.699 141.6 201.199 148.5 201.299 160.5C201.399 176.3 201.199 178.1 198.599 186.9C197.099 192.1 194.899 198.2 193.799 200.4C188.899 210 180.599 221 172.299 228.9C167.499 233.6 159.699 241 155.099 245.4C142.999 257 134.999 270.1 131.399 284C129.499 291.4 130.099 294 133.899 294C136.299 294 137.399 292.8 141.799 286.1ZM108.999 286.7C108.999 286 107.899 282.5 106.499 279C101.399 265.9 99.6991 250.4 101.999 236.3C102.599 232.8 105.099 223.6 107.499 215.8C112.999 198.4 113.499 189.8 109.499 181.3L107.099 176H86.2991C74.8991 176 63.7991 175.5 61.6991 174.9C56.1991 173.4 51.6991 168.9 45.3991 158.8C38.6991 147.9 38.2991 147 40.3991 147C41.2991 147 41.9991 146.6 41.9991 146.1C41.9991 145.6 44.5991 144.2 47.6991 143C50.8991 141.7 55.7991 139.7 58.4991 138.5C61.2991 137.3 69.3991 133.7 76.5991 130.5L89.6991 124.8L94.0991 118.1C96.4991 114.5 99.1991 110.2 99.9991 108.5C103.699 101.3 120.599 86.9995 130.399 82.9995L135.999 80.7995L136.099 67.0995C136.099 59.5995 136.099 50.0995 135.999 45.7995C135.899 41.5995 136.299 37.8995 136.899 37.5995C137.999 36.8995 145.899 44.9995 150.799 51.7995C152.599 54.3995 154.499 56.5995 154.899 56.7995C155.699 57.0995 158.799 47.8995 161.099 38.7995L162.199 34.0995L166.499 36.9995C176.199 43.6995 188.199 59.9995 194.499 75.1995C197.499 82.4995 198.099 83.1995 205.599 88.7995C209.999 91.9995 216.499 97.3995 220.099 100.7C227.599 107.8 240.499 123.3 243.799 129.3C245.099 131.6 247.499 135.6 249.099 138.2C252.199 143.3 255.199 150 254.399 150C254.099 150 254.399 150.8 254.899 151.9C255.799 153.4 254.999 153.2 250.699 150.9C238.899 144.5 234.999 143.5 239.199 148.1C240.499 149.5 243.999 153.5 246.999 157C249.999 160.5 253.199 164.1 254.099 165C258.799 169.9 267.999 188.7 267.999 193.5C267.999 194.5 266.099 193.6 262.799 191C257.799 187.2 251.999 184.4 251.999 185.7C251.999 186 253.699 188.4 255.699 190.9C259.599 195.7 260.799 197.1 268.599 206C271.299 209 274.399 212.8 275.599 214.4L277.599 217.2L279.199 214.9C281.999 210.5 286.899 195.5 288.999 184.5C290.199 178.5 291.499 171.3 292.099 168.7C293.299 162.2 293.199 143.5 291.899 134.7C289.499 118.7 282.999 99.7995 275.299 85.9995C265.199 68.1995 246.799 47.1995 233.499 38.5995C230.199 36.3995 226.399 33.8995 224.999 32.9995C219.499 29.3995 200.099 19.9995 194.399 18.0995C179.199 13.2995 173.299 12.4995 152.999 12.4995C126.199 12.4995 114.499 15.0995 93.4991 25.6995C77.5991 33.7995 67.3991 40.8995 56.7991 51.3995C40.9991 66.9995 35.4991 74.1995 28.1991 88.4995C4.39913 135.2 7.59913 190.4 36.4991 233.5C41.8991 241.5 42.8991 242.8 50.4991 251.1C60.9991 262.6 75.6991 273.1 93.9991 282.2C105.699 288 108.999 289 108.999 286.7ZM123.099 274.1C125.299 265.5 131.099 254.2 137.799 245.6C140.399 242.2 148.199 233.9 155.099 227C177.199 205.1 183.099 192.9 183.299 168.5C183.399 159.4 182.899 155.2 181.599 151C178.999 143.2 177.999 142.7 177.999 149.2C177.999 161.4 173.099 177.3 165.399 190.2C159.199 200.4 154.399 205.9 144.999 213.3L137.499 219.3L136.999 207.4C136.499 198.7 135.899 194.6 134.599 192C132.199 187.5 129.199 184.2 125.699 182.3L122.899 180.9L123.499 188.7C124.399 198.2 123.299 204.1 117.799 221C114.099 232.3 113.599 234.8 113.199 246C112.899 255.4 113.199 260.7 114.499 267C116.299 275.9 118.799 282.2 120.299 281.7C120.799 281.6 122.099 278.1 123.099 274.1ZM247.599 230.1C248.799 224.9 249.099 220.4 248.699 214.6C248.099 207.1 245.999 198.6 244.099 196.7C243.599 196.2 243.099 200.5 242.799 206.2C242.499 211.9 241.499 219.3 240.499 222.7C238.599 229.4 238.899 231.7 242.099 236.9C244.699 241.1 245.299 240.3 247.599 230.1ZM226.699 209.6L230.499 198.5V181V163.5L226.899 156C223.499 148.9 213.899 136.8 212.599 138.1C212.299 138.4 212.899 140.9 213.899 143.6C215.599 148 218.499 158.4 221.099 169.5C221.599 171.7 222.299 180.7 222.699 189.5C223.199 204.4 222.699 212.3 220.299 221C219.699 223.2 219.799 223.4 221.299 222.1C222.199 221.4 224.699 215.8 226.699 209.6ZM151.999 188.9C158.499 180.6 161.199 175.4 163.699 165.8C166.299 155.6 166.599 146 164.599 138.5C161.199 125.6 156.199 119.2 145.299 113.8C139.399 110.9 137.599 110.5 130.999 110.6C124.699 110.6 122.599 111.1 117.499 113.7C110.499 117.3 105.999 121.4 101.799 128.3C98.5991 133.3 95.0991 135.4 82.4991 140C68.8991 144.9 61.4991 148.9 58.7991 152.6C57.1991 154.6 55.9991 156.7 55.9991 157.1C55.9991 157.6 57.2991 159.4 58.7991 161.1L61.5991 164.2L88.5991 164.4C114.199 164.5 115.799 164.6 121.199 166.8C133.299 171.7 142.699 180.7 145.199 189.8C145.899 192.1 146.799 194 147.199 194C147.599 194 149.799 191.7 151.999 188.9ZM169.299 94.4995C171.099 88.7995 171.499 85.4995 171.299 76.4995C171.199 65.6995 169.399 56.7995 167.499 56.7995C166.999 56.7995 164.299 62.5995 161.599 69.6995C156.899 81.8995 156.599 82.9995 156.599 92.4995C156.499 101.2 156.799 103.1 158.799 106.9L161.199 111.3L164.099 106.4C165.699 103.7 167.999 98.3995 169.299 94.4995Z" fill="#ADACB3"/>
<path d="M113.399 126.1C115.499 122.2 118.299 120.4 123.899 119.5L128.399 118.8L125.599 122.1C122.399 126 119.899 127.5 115.199 128.5L111.799 129.2L113.399 126.1Z" fill="#ADACB3"/>
</svg>
