<svg width="70" height="70" viewBox="0 0 70 70" fill="none" xmlns="http://www.w3.org/2000/svg">
<path d="M30.7837 69.8091C24.1848 69.2382 16.5813 65.8361 11.6721 61.2694C8.42978 58.2782 6.23777 55.5154 4.29694 52.0447C-2.09641 40.5367 -1.29724 25.7635 6.30628 14.872C8.86361 11.173 11.969 7.99911 14.9373 6.03544C18.4993 3.6836 23.9793 1.46876 28.3177 0.646763C35.944 -0.837407 42.9539 0.212929 50.5802 4.00327C54.9414 6.14961 57.7727 8.38728 61.0836 12.2918C62.5677 14.0271 64.8511 17.2923 64.8511 17.6576C64.8511 17.7261 65.3077 18.7536 65.8786 19.941C67.1572 22.5896 68.1162 25.5123 68.7784 28.6862C69.3949 31.7458 69.4634 37.7738 68.8926 40.8335C68.0021 45.6057 67.3171 47.615 65.1707 51.7935C63.5952 54.876 62.1339 56.8169 59.1427 59.7852C56.1744 62.7764 54.2335 64.2377 51.151 65.8132C44.2325 69.3752 38.5013 70.4941 30.7837 69.8091ZM32.1537 65.2881C33.5922 63.0732 36.2637 60.3104 39.643 57.5476C44.9404 53.2092 47.178 49.9212 48.0914 45.1719C48.7079 42.0665 48.3654 35.8102 47.5205 34.2803C47.3835 34.052 46.904 32.9788 46.4474 31.8828C45.9907 30.7868 45.4884 29.7822 45.3057 29.6223C44.8719 29.2798 44.8947 29.5538 45.3514 31.312C45.6025 32.2938 45.7167 33.8693 45.7395 36.6093C45.7624 40.217 45.7167 40.628 45.123 42.6374C44.7805 43.8247 44.2782 45.2175 44.027 45.7199C42.9082 47.9119 41.013 50.4235 39.1178 52.2274C38.0218 53.3005 36.2408 54.9902 35.1905 55.9949C32.4277 58.6436 30.601 61.6347 29.779 64.8086C29.3452 66.4982 29.4822 67.0919 30.3498 67.0919C30.8978 67.0919 31.149 66.8179 32.1537 65.2881ZM24.6643 65.4251C24.6643 65.2652 24.4131 64.4661 24.0935 63.6669C22.929 60.6757 22.5408 57.1365 23.066 53.917C23.203 53.1179 23.7738 51.0172 24.3218 49.2362C25.5777 45.2632 25.6918 43.2995 24.7785 41.3587L24.2305 40.1485H19.4811C16.8781 40.1485 14.3436 40.0343 13.8641 39.8973C12.6083 39.5548 11.5808 38.5273 10.1423 36.2212C8.61245 33.7323 8.52111 33.5268 9.00061 33.5268C9.20611 33.5268 9.36595 33.4355 9.36595 33.3213C9.36595 33.2072 9.95962 32.8875 10.6675 32.6135C11.3981 32.3167 12.517 31.86 13.1335 31.586C13.7728 31.312 15.6223 30.49 17.2663 29.7593L20.2575 28.4578L21.2621 26.928C21.8101 26.106 22.4266 25.1241 22.6093 24.736C23.4541 23.092 27.313 19.8268 29.5507 18.9135L30.8293 18.4111L30.8522 15.283C30.8522 13.5705 30.8522 11.4013 30.8293 10.4194C30.8065 9.46045 30.8978 8.61561 31.0348 8.54711C31.286 8.38728 33.0898 10.2368 34.2087 11.7895C34.6197 12.3831 35.0535 12.8855 35.1448 12.9311C35.3275 12.9996 36.0353 10.899 36.5605 8.82111L36.8117 7.74794L37.7935 8.41011C40.0083 9.93995 42.7484 13.6618 44.1869 17.1325C44.8719 18.7993 45.0089 18.9591 46.7214 20.2378C47.726 20.9685 49.2102 22.2015 50.0322 22.955C51.7447 24.5761 54.6902 28.1153 55.4437 29.4853C55.7405 30.0105 56.2885 30.9238 56.6539 31.5175C57.3617 32.682 58.0467 34.2118 57.8641 34.2118C57.7956 34.2118 57.8641 34.3945 57.9782 34.6457C58.1837 34.9882 58.0011 34.9425 57.0192 34.4173C54.3249 32.956 53.4344 32.7277 54.3934 33.778C54.6902 34.0977 55.4894 35.011 56.1744 35.8102C56.8594 36.6093 57.5901 37.4313 57.7956 37.6368C58.8687 38.7557 60.9694 43.0484 60.9694 44.1444C60.9694 44.3727 60.5356 44.1672 59.7821 43.5735C58.6404 42.7059 57.316 42.0665 57.316 42.3633C57.316 42.4318 57.7042 42.9799 58.1609 43.5507C59.0514 44.6467 59.3254 44.9664 61.1064 46.9985C61.7229 47.6835 62.4307 48.5512 62.7047 48.9165L63.1614 49.5559L63.5267 49.0307C64.1661 48.026 65.2849 44.601 65.7644 42.0893C66.0384 40.7193 66.3352 39.0753 66.4722 38.4817C66.7462 36.9975 66.7234 32.7277 66.4266 30.7183C65.8786 27.065 64.3944 22.7495 62.6362 19.5985C60.3301 15.5341 56.1287 10.7391 53.0919 8.77545C52.3384 8.27311 51.4707 7.70228 51.151 7.49678C49.8952 6.67478 45.4655 4.52844 44.164 4.0946C40.6933 2.9986 39.3462 2.81593 34.711 2.81593C28.5917 2.81593 25.9202 3.4096 21.1251 5.82994C17.4946 7.67944 15.1656 9.30061 12.7453 11.6981C9.13761 15.2601 7.88178 16.9041 6.21494 20.1693C0.780597 30.8325 1.51127 43.4365 8.11011 53.2777C9.34312 55.1044 9.57145 55.4012 11.3068 57.2964C13.7043 59.9222 17.0608 62.3197 21.2393 64.3976C23.9108 65.7219 24.6643 65.9502 24.6643 65.4251ZM27.8838 62.5481C28.3862 60.5844 29.7105 58.0042 31.2403 56.0405C31.834 55.2642 33.615 53.369 35.1905 51.7935C40.2367 46.793 41.5839 44.0074 41.6295 38.436C41.6524 36.3582 41.5382 35.3992 41.2414 34.4402C40.6477 32.6592 40.4193 32.545 40.4193 34.0292C40.4193 36.8148 39.3005 40.4453 37.5423 43.3909C36.1267 45.7199 35.0307 46.9757 32.8843 48.6654L31.1718 50.0354L31.0577 47.3182C30.9435 45.3317 30.8065 44.3955 30.5097 43.8019C29.9617 42.7744 29.2767 42.0208 28.4775 41.587L27.8382 41.2673L27.9752 43.0484C28.1807 45.2175 27.9295 46.5647 26.6737 50.4235C25.8288 53.0037 25.7147 53.5745 25.6233 56.1319C25.5548 58.2782 25.6233 59.4884 25.9202 60.9269C26.3312 62.9591 26.902 64.3976 27.2445 64.2834C27.3587 64.2606 27.6555 63.4614 27.8838 62.5481ZM56.3114 52.5014C56.5854 51.314 56.6539 50.2865 56.5625 48.9622C56.4255 47.2497 55.946 45.3089 55.5122 44.875C55.398 44.7609 55.2839 45.7427 55.2154 47.0442C55.1469 48.3457 54.9185 50.0354 54.6902 50.8117C54.2564 52.3415 54.3249 52.8667 55.0555 54.054C55.6492 55.013 55.7862 54.8304 56.3114 52.5014ZM51.5392 47.8205L52.4069 45.286V41.2902V37.2943L51.5849 35.5818C50.8085 33.9607 48.6165 31.1978 48.3197 31.4947C48.2512 31.5632 48.3882 32.134 48.6165 32.7505C49.0047 33.7552 49.6669 36.1298 50.2605 38.6643C50.3747 39.1667 50.5345 41.2217 50.6259 43.231C50.74 46.6332 50.6259 48.437 50.0779 50.4235C49.9409 50.9259 49.9637 50.9715 50.3062 50.6747C50.5117 50.5149 51.0825 49.2362 51.5392 47.8205ZM34.4827 43.094C35.9668 41.1988 36.5833 40.0115 37.1542 37.8195C37.7478 35.4905 37.8163 33.2985 37.3597 31.586C36.5833 28.6405 35.4417 27.1792 32.9528 25.9461C31.6057 25.284 31.1947 25.1926 29.6877 25.2155C28.2492 25.2155 27.7697 25.3296 26.6052 25.9233C25.0068 26.7453 23.9793 27.6815 23.0203 29.257C22.2896 30.3987 21.4905 30.8782 18.6135 31.9285C15.5081 33.0473 13.8185 33.9607 13.202 34.8055C12.8366 35.2622 12.5626 35.7417 12.5626 35.833C12.5626 35.9472 12.8595 36.3582 13.202 36.7463L13.8413 37.4542L20.0063 37.4998C25.8517 37.5227 26.217 37.5455 27.45 38.0478C30.2128 39.1667 32.3592 41.2217 32.93 43.2995C33.0898 43.8247 33.2953 44.2585 33.3867 44.2585C33.478 44.2585 33.9803 43.7334 34.4827 43.094ZM38.4328 21.5393C38.8438 20.2378 38.9352 19.4843 38.8895 17.4293C38.8667 14.9633 38.4557 12.9311 38.0218 12.9311C37.9077 12.9311 37.2912 14.2555 36.6747 15.8766C35.6015 18.6623 35.533 18.9135 35.533 21.0826C35.5102 23.0691 35.5787 23.503 36.0353 24.3706L36.5833 25.3753L37.2455 24.2565C37.6108 23.64 38.136 22.4298 38.4328 21.5393Z" fill="#FF565D"/>
<path d="M25.67 28.7547C26.1495 27.8642 26.7889 27.4532 28.0675 27.2477L29.095 27.0879L28.4557 27.8414C27.725 28.7319 27.1542 29.0744 26.081 29.3027L25.3047 29.4626L25.67 28.7547Z" fill="#FF565D"/>
</svg>
