<svg width="300" height="300" viewBox="0 0 300 300" fill="none" xmlns="http://www.w3.org/2000/svg">
<path d="M0 299.986C2.75213e-06 268.505 4.95499 237.221 14.6831 207.281L300 299.986L0 299.986Z" fill="#FAFF00" fill-opacity="0.29"/>
<path d="M0 299.986C1.37394e-06 284.27 1.23497 268.578 3.6935 253.055L300 299.986L0 299.986Z" fill="#FAFF00" fill-opacity="0.29"/>
<path d="M52.3061 260.746C50.7942 270.292 41.8299 276.804 32.284 275.292C22.738 273.781 16.2251 264.816 17.737 255.27C19.2489 245.724 28.2132 239.211 37.7592 240.723C47.3051 242.235 53.818 251.2 52.3061 260.746Z" fill="#D9D9D9"/>
<path d="M14.6855 207.283C24.4136 177.343 38.7935 149.121 57.2974 123.653L300.002 299.988L14.6855 207.283Z" fill="#FAFF00" fill-opacity="0.29"/>
<path d="M14.6855 207.283C19.5421 192.336 25.5656 177.794 32.7006 163.791L300.002 299.988L14.6855 207.283Z" fill="#FAFF00" fill-opacity="0.29"/>
<path d="M76.5575 186.127C72.1697 194.739 61.6316 198.163 53.02 193.775C44.4085 189.387 40.9845 178.849 45.3723 170.237C49.7601 161.626 60.2981 158.202 68.9097 162.59C77.5213 166.977 80.9453 177.515 76.5575 186.127Z" fill="#D9D9D9"/>
<path d="M57.2992 123.656C75.8031 98.1873 98.2004 75.79 123.669 57.2861L300.004 299.991L57.2992 123.656Z" fill="#FAFF00" fill-opacity="0.29"/>
<path d="M57.2992 123.656C66.5369 110.941 76.7594 98.9721 87.8723 87.8592L300.004 299.991L57.2992 123.656Z" fill="#FAFF00" fill-opacity="0.29"/>
<path d="M122.681 122.654C115.846 129.489 104.766 129.489 97.9318 122.654C91.0977 115.82 91.0977 104.74 97.9318 97.9057C104.766 91.0715 115.846 91.0715 122.681 97.9057C129.515 104.74 129.515 115.82 122.681 122.654Z" fill="#D9D9D9"/>
<path d="M123.67 57.2901C149.138 38.7862 177.361 24.4063 207.3 14.6782L300.005 299.995L123.67 57.2901Z" fill="#FAFF00" fill-opacity="0.29"/>
<path d="M123.67 57.2901C136.385 48.0524 149.805 39.8281 163.808 32.6932L300.005 299.995L123.67 57.2901Z" fill="#FAFF00" fill-opacity="0.29"/>
<path d="M186.161 76.5418C177.549 80.9296 167.011 77.5055 162.623 68.894C158.235 60.2824 161.659 49.7443 170.271 45.3565C178.883 40.9687 189.421 44.3927 193.808 53.0043C198.196 61.6159 194.772 72.1539 186.161 76.5418Z" fill="#D9D9D9"/>
<path d="M207.3 14.683C237.24 4.95497 268.525 -5.91788e-06 300.005 0L300.005 300L207.3 14.683Z" fill="#FAFF00" fill-opacity="0.29"/>
<path d="M207.3 14.683C222.247 9.82651 237.552 6.15202 253.075 3.69349L300.005 300L207.3 14.683Z" fill="#FAFF00" fill-opacity="0.29"/>
<path d="M260.783 52.3032C251.237 53.8151 242.273 47.3022 240.761 37.7563C239.249 28.2103 245.762 19.246 255.308 17.7341C264.854 16.2222 273.818 22.7351 275.33 32.281C276.842 41.827 270.329 50.7913 260.783 52.3032Z" fill="#D9D9D9"/>
<path d="M297.999 2.00672L298 287.373L209.817 15.9736C238.343 6.91621 268.071 2.20764 297.999 2.00672ZM206.012 17.2097L294.196 288.609L126.462 57.7428C150.793 40.3137 177.611 26.6493 206.012 17.2097ZM60.094 123.226C77.8482 99.131 99.131 77.8482 123.226 60.094L290.96 290.96L60.094 123.226ZM57.7428 126.462L288.609 294.196L17.2096 206.013C26.6491 177.611 40.3136 150.793 57.7428 126.462ZM15.9735 209.817L287.373 298L2.00671 298C2.20758 268.071 6.91602 238.343 15.9735 209.817Z" fill="#FFEA2B" fill-opacity="0.1" stroke="#FF2020" stroke-width="4"/>
</svg>
