<svg width="35" height="35" viewBox="0 0 35 35" fill="none" xmlns="http://www.w3.org/2000/svg">
<g clip-path="url(#clip0_1406_4692)">
<path d="M23.3327 1.16602H11.666C5.86703 1.16602 1.16602 5.86703 1.16602 11.666V23.3327C1.16602 29.1317 5.86703 33.8327 11.666 33.8327H23.3327C29.1317 33.8327 33.8327 29.1317 33.8327 23.3327V11.666C33.8327 5.86703 29.1317 1.16602 23.3327 1.16602Z" stroke="white"/>
<path d="M17.5 27.9961C23.299 27.9961 28 23.2951 28 17.4961C28 11.6971 23.299 6.99609 17.5 6.99609C11.701 6.99609 7 11.6971 7 17.4961C7 23.2951 11.701 27.9961 17.5 27.9961Z" fill="#FF565D"/>
<path d="M29.0662 5.93496C28.9878 5.85651 28.8948 5.79428 28.7923 5.75182C28.6899 5.70936 28.5801 5.6875 28.4692 5.6875C28.3583 5.6875 28.2485 5.70936 28.1461 5.75182C28.0437 5.79428 27.9506 5.85651 27.8723 5.93496L22.3457 11.4626L21.7793 10.8952C21.1457 10.2633 20.2874 9.90855 19.3926 9.90855C18.4978 9.90855 17.6395 10.2633 17.0058 10.8952L14.5473 13.3547L13.8787 12.685C13.7204 12.5266 13.5056 12.4377 13.2817 12.4377C13.0578 12.4377 12.8431 12.5266 12.6848 12.685C12.5264 12.8433 12.4375 13.058 12.4375 13.2819C12.4375 13.5058 12.5264 13.7205 12.6848 13.8789L13.3545 14.5475L10.895 17.006C10.5815 17.3194 10.3328 17.6915 10.1632 18.101C9.9935 18.5106 9.90617 18.9495 9.90617 19.3928C9.90617 19.836 9.9935 20.275 10.1632 20.6845C10.3328 21.094 10.5815 21.4661 10.895 21.7795L11.4624 22.3459L5.93477 27.8725C5.85637 27.9509 5.79419 28.0439 5.75176 28.1463C5.70934 28.2488 5.6875 28.3585 5.6875 28.4694C5.6875 28.5803 5.70934 28.6901 5.75176 28.7925C5.79419 28.8949 5.85637 28.988 5.93477 29.0664C6.09309 29.2247 6.30782 29.3136 6.53172 29.3136C6.64258 29.3136 6.75236 29.2918 6.85479 29.2494C6.95721 29.2069 7.05028 29.1448 7.12867 29.0664L12.6552 23.5387L13.2216 24.1062C13.535 24.4197 13.9071 24.6683 14.3166 24.838C14.7261 25.0076 15.1651 25.095 15.6084 25.095C16.0516 25.095 16.4906 25.0076 16.9001 24.838C17.3096 24.6683 17.6817 24.4197 17.9951 24.1062L20.4536 21.6466L21.1223 22.3164C21.2007 22.3948 21.2937 22.4569 21.3962 22.4994C21.4986 22.5418 21.6084 22.5636 21.7192 22.5636C21.8301 22.5636 21.9399 22.5418 22.0423 22.4994C22.1447 22.4569 22.2378 22.3948 22.3162 22.3164C22.3946 22.238 22.4568 22.1449 22.4992 22.0425C22.5416 21.9401 22.5634 21.8303 22.5634 21.7194C22.5634 21.6085 22.5416 21.4988 22.4992 21.3963C22.4568 21.2939 22.3946 21.2009 22.3162 21.1225L21.6464 20.4538L24.106 17.9953C24.4195 17.6819 24.6681 17.3098 24.8378 16.9003C25.0074 16.4908 25.0948 16.0518 25.0948 15.6086C25.0948 15.1653 25.0074 14.7263 24.8378 14.3168C24.6681 13.9073 24.4195 13.5352 24.106 13.2218L23.5386 12.6554L29.0662 7.12887C29.1446 7.05051 29.2069 6.95745 29.2493 6.85502C29.2918 6.75259 29.3136 6.6428 29.3136 6.53191C29.3136 6.42103 29.2918 6.31124 29.2493 6.20881C29.2069 6.10638 29.1446 6.01332 29.0662 5.93496ZM16.8012 22.9154C16.4848 23.2317 16.0557 23.4093 15.6084 23.4093C15.161 23.4093 14.7319 23.2317 14.4155 22.9154L12.0889 20.5856C11.7726 20.2692 11.595 19.8401 11.595 19.3928C11.595 18.9454 11.7726 18.5164 12.0889 18.1999L14.5473 15.7404L19.2607 20.4538L16.8012 22.9154ZM22.9121 16.8046L20.4536 19.2609L15.7402 14.5475L18.1997 12.0891C18.5162 11.7728 18.9452 11.5952 19.3926 11.5952C19.8399 11.5952 20.269 11.7728 20.5854 12.0891L22.9121 14.4094C23.0696 14.5662 23.1946 14.7526 23.2799 14.9578C23.3652 15.163 23.4091 15.3831 23.4091 15.6054C23.4091 15.8277 23.3652 16.0477 23.2799 16.253C23.1946 16.4582 23.0696 16.6446 22.9121 16.8014V16.8046ZM13.3418 7.69207C13.2579 7.48424 13.26 7.25158 13.3476 7.04528C13.4352 6.83899 13.6012 6.67595 13.8091 6.59203C14.0169 6.50811 14.2496 6.5102 14.4558 6.59782C14.6621 6.68544 14.8252 6.85143 14.9091 7.05926L15.7529 9.16863C15.7944 9.27154 15.8153 9.38163 15.8143 9.4926C15.8133 9.60358 15.7905 9.71327 15.7471 9.81542C15.7037 9.91757 15.6406 10.0102 15.5614 10.0879C15.4822 10.1657 15.3885 10.2271 15.2856 10.2687C15.1827 10.3102 15.0726 10.3311 14.9617 10.3301C14.8507 10.3291 14.741 10.3063 14.6388 10.2629C14.5367 10.2195 14.4441 10.1564 14.3663 10.0772C14.2886 9.99807 14.2271 9.90435 14.1856 9.80145L13.3418 7.69207ZM6.59184 13.8093C6.63324 13.7062 6.69457 13.6124 6.77231 13.5331C6.85005 13.4539 6.94268 13.3907 7.04487 13.3473C7.14707 13.3039 7.25682 13.2811 7.36785 13.2802C7.47887 13.2793 7.58899 13.3003 7.69188 13.342L9.80125 14.1858C9.90416 14.2273 9.99787 14.2887 10.077 14.3665C10.1562 14.4443 10.2193 14.5369 10.2627 14.639C10.3061 14.7412 10.3289 14.8509 10.3299 14.9619C10.3309 15.0728 10.31 15.1829 10.2685 15.2858C10.2269 15.3887 10.1655 15.4824 10.0877 15.5616C10.01 15.6408 9.91737 15.7039 9.81522 15.7473C9.71308 15.7906 9.60338 15.8135 9.49241 15.8145C9.38143 15.8155 9.27135 15.7946 9.16844 15.753L7.05906 14.9093C6.95604 14.8679 6.86221 14.8066 6.78293 14.7288C6.70366 14.6511 6.64051 14.5585 6.59711 14.4563C6.5537 14.3541 6.53089 14.2443 6.52999 14.1333C6.52908 14.0223 6.5501 13.9121 6.59184 13.8093ZM28.4091 21.1921C28.368 21.295 28.307 21.3888 28.2296 21.4682C28.1522 21.5475 28.06 21.6108 27.9581 21.6545C27.8563 21.6982 27.7468 21.7214 27.636 21.7227C27.5251 21.7241 27.4151 21.7036 27.3122 21.6625L25.2029 20.8187C25.0997 20.7774 25.0058 20.7161 24.9263 20.6385C24.8469 20.5608 24.7835 20.4683 24.7398 20.3661C24.6962 20.264 24.673 20.1542 24.6718 20.0431C24.6705 19.932 24.6911 19.8218 24.7325 19.7187C24.7738 19.6156 24.8351 19.5216 24.9127 19.4421C24.9904 19.3627 25.0829 19.2993 25.1851 19.2557C25.2872 19.212 25.397 19.1888 25.508 19.1876C25.6191 19.1863 25.7294 19.2069 25.8325 19.2483L27.9419 20.092C28.0449 20.1334 28.1387 20.1948 28.218 20.2725C28.2973 20.3502 28.3604 20.4429 28.4038 20.5451C28.4472 20.6473 28.47 20.757 28.4709 20.868C28.4719 20.9791 28.4508 21.0892 28.4091 21.1921ZM21.6591 27.3156C21.7002 27.4185 21.7207 27.5285 21.7193 27.6393C21.7179 27.7501 21.6948 27.8596 21.6511 27.9614C21.6074 28.0633 21.5441 28.1556 21.4648 28.2329C21.3854 28.3103 21.2916 28.3713 21.1887 28.4125C21.0858 28.4536 20.9758 28.4741 20.865 28.4727C20.7542 28.4713 20.6447 28.4481 20.5429 28.4044C20.441 28.3608 20.3487 28.2974 20.2714 28.2181C20.194 28.1388 20.133 28.045 20.0918 27.9421L19.2481 25.8327C19.1642 25.6249 19.1663 25.3922 19.2539 25.1859C19.3415 24.9796 19.5075 24.8166 19.7153 24.7327C19.9231 24.6487 20.1558 24.6508 20.3621 24.7384C20.5684 24.8261 20.7314 24.992 20.8154 25.1999L21.6591 27.3156Z" fill="black"/>
</g>
<defs>
<clipPath id="clip0_1406_4692">
<rect width="35" height="35" fill="white"/>
</clipPath>
</defs>
</svg>
