<svg width="35" height="35" viewBox="0 0 35 35" fill="none" xmlns="http://www.w3.org/2000/svg">
<path d="M17.5 3.28125C14.6878 3.28125 11.9388 4.11517 9.60049 5.67754C7.26223 7.23992 5.43978 9.46058 4.36359 12.0587C3.28741 14.6569 3.00583 17.5158 3.55447 20.2739C4.1031 23.0321 5.4573 25.5656 7.44583 27.5542C9.43436 29.5427 11.9679 30.8969 14.7261 31.4455C17.4842 31.9942 20.3431 31.7126 22.9413 30.6364C25.5394 29.5602 27.7601 27.7378 29.3225 25.3995C30.8848 23.0613 31.7188 20.3122 31.7188 17.5C31.7148 13.7302 30.2155 10.1159 27.5498 7.45022C24.8841 4.78455 21.2698 3.28523 17.5 3.28125ZM17.5 29.5312C15.1204 29.5312 12.7943 28.8256 10.8158 27.5036C8.83727 26.1816 7.2952 24.3026 6.38458 22.1042C5.47396 19.9057 5.2357 17.4867 5.69993 15.1528C6.16416 12.819 7.31003 10.6752 8.99263 8.99262C10.6752 7.31002 12.819 6.16416 15.1528 5.69993C17.4867 5.2357 19.9057 5.47396 22.1042 6.38457C24.3026 7.29519 26.1816 8.83727 27.5036 10.8158C28.8256 12.7943 29.5313 15.1204 29.5313 17.5C29.5276 20.6898 28.2589 23.7479 26.0034 26.0034C23.7479 28.2589 20.6898 29.5276 17.5 29.5312ZM24.0625 17.5C24.0625 17.7901 23.9473 18.0683 23.7422 18.2734C23.537 18.4785 23.2588 18.5938 22.9688 18.5938H18.5938V22.9688C18.5938 23.2588 18.4785 23.537 18.2734 23.7421C18.0683 23.9473 17.7901 24.0625 17.5 24.0625C17.2099 24.0625 16.9317 23.9473 16.7266 23.7421C16.5215 23.537 16.4063 23.2588 16.4063 22.9688V18.5938H12.0313C11.7412 18.5938 11.463 18.4785 11.2579 18.2734C11.0527 18.0683 10.9375 17.7901 10.9375 17.5C10.9375 17.2099 11.0527 16.9317 11.2579 16.7266C11.463 16.5215 11.7412 16.4062 12.0313 16.4062H16.4063V12.0312C16.4063 11.7412 16.5215 11.463 16.7266 11.2579C16.9317 11.0527 17.2099 10.9375 17.5 10.9375C17.7901 10.9375 18.0683 11.0527 18.2734 11.2579C18.4785 11.463 18.5938 11.7412 18.5938 12.0312V16.4062H22.9688C23.2588 16.4062 23.537 16.5215 23.7422 16.7266C23.9473 16.9317 24.0625 17.2099 24.0625 17.5Z" fill="#ADACB3"/>
</svg>
