<svg width="35" height="35" viewBox="0 0 35 35" fill="none" xmlns="http://www.w3.org/2000/svg">
<mask id="mask0_1356_4715" style="mask-type:luminance" maskUnits="userSpaceOnUse" x="4" y="2" width="27" height="31">
<path fill-rule="evenodd" clip-rule="evenodd" d="M16.0417 6.08449V8.75033C16.0417 9.55678 16.695 10.2087 17.5 10.2087C18.305 10.2087 18.9583 9.55678 18.9583 8.75033V6.08449C20.3044 6.55991 21.366 7.68137 21.7394 9.14553C21.8313 9.46783 21.875 9.81783 21.875 10.2087C21.875 12.6207 19.9121 14.5837 17.5 14.5837C15.0879 14.5837 13.125 12.6207 13.125 10.2087C13.125 9.82658 13.1702 9.48678 13.2577 9.17033C13.2621 9.15283 13.2635 9.13678 13.2679 9.11928L13.2738 9.09741C13.6413 7.66533 14.7 6.55699 16.0417 6.08449M26.25 7.29199H24.1763C23.0402 4.66845 20.4415 2.91699 17.5 2.91699C14.5498 2.91699 11.9452 4.68012 10.8208 7.29199H8.75C6.33792 7.29199 4.375 9.25491 4.375 11.667V27.7087C4.375 30.1207 6.33792 32.0837 8.75 32.0837H26.25C28.6621 32.0837 30.625 30.1207 30.625 27.7087V11.667C30.625 9.25491 28.6621 7.29199 26.25 7.29199" fill="white"/>
</mask>
<g mask="url(#mask0_1356_4715)">
<rect width="35" height="35" fill="#ADACB3"/>
</g>
</svg>
