<svg width="35" height="35" viewBox="0 0 35 35" fill="none" xmlns="http://www.w3.org/2000/svg">
<mask id="mask0_1356_4714" style="mask-type:luminance" maskUnits="userSpaceOnUse" x="2" y="2" width="31" height="31">
<path fill-rule="evenodd" clip-rule="evenodd" d="M26.2493 27.7087C26.2493 28.5122 25.596 29.167 24.791 29.167H10.2077C9.40268 29.167 8.74935 28.5122 8.74935 27.7087V11.667H26.2493V27.7087ZM14.5827 6.31199C14.5827 6.08595 14.8948 5.83366 15.3118 5.83366H19.6868C20.1039 5.83366 20.416 6.08595 20.416 6.31199V8.75033H14.5827V6.31199ZM30.6243 8.75033H29.166H23.3327V6.31199C23.3327 4.43949 21.6979 2.91699 19.6868 2.91699H15.3118C13.3008 2.91699 11.666 4.43949 11.666 6.31199V8.75033H5.83268H4.37435C3.57227 8.75033 2.91602 9.40658 2.91602 10.2087C2.91602 11.0107 3.57227 11.667 4.37435 11.667H5.83268V27.7087C5.83268 30.1207 7.7956 32.0837 10.2077 32.0837H24.791C27.2031 32.0837 29.166 30.1207 29.166 27.7087V11.667H30.6243C31.4264 11.667 32.0827 11.0107 32.0827 10.2087C32.0827 9.40658 31.4264 8.75033 30.6243 8.75033V8.75033Z" fill="white"/>
</mask>
<g mask="url(#mask0_1356_4714)">
<rect width="35" height="35" fill="#ADACB3"/>
</g>
</svg>
