<svg width="35" height="35" viewBox="0 0 35 35" fill="none" xmlns="http://www.w3.org/2000/svg">
<mask id="mask0_1317_4583" style="mask-type:luminance" maskUnits="userSpaceOnUse" x="7" y="7" width="23" height="21">
<path fill-rule="evenodd" clip-rule="evenodd" d="M29.123 8.74449C29.1201 7.94095 28.4668 7.29199 27.6647 7.29199H27.6588C26.8538 7.29491 26.2034 7.95116 26.2063 8.75616L26.237 16.0478C26.237 16.4372 26.0882 16.8047 25.8141 17.0803C25.5384 17.3574 25.1738 17.5105 24.7845 17.512L11.7776 17.566L15.6947 12.628C16.1949 11.9966 16.0884 11.0793 15.4584 10.5791C14.8284 10.0789 13.9111 10.1868 13.4095 10.8153L7.60676 18.1303C7.18238 18.6655 7.18676 19.421 7.61405 19.9532L13.4766 27.2201C13.7653 27.5774 14.1868 27.7626 14.6126 27.7626C14.9349 27.7626 15.2586 27.6562 15.5284 27.4389C16.1541 26.9343 16.2532 26.0155 15.7472 25.3885L11.7893 20.4826L24.7961 20.4287C25.9643 20.4243 27.0609 19.9649 27.8849 19.1351C28.7074 18.3053 29.158 17.2043 29.1536 16.0362L29.123 8.74449Z" fill="white"/>
</mask>
<g mask="url(#mask0_1317_4583)">
<rect width="35" height="35" fill="#ADACB3"/>
</g>
</svg>
