<svg width="35" height="35" viewBox="0 0 35 35" fill="none" xmlns="http://www.w3.org/2000/svg">
<path d="M26.2344 8.18806C25.5961 8.18713 24.968 8.347 24.4078 8.6529C24.2054 8.02595 23.8446 7.46184 23.3604 7.01514C22.8761 6.56845 22.2848 6.25429 21.6436 6.10305C21.0023 5.95182 20.3329 5.96864 19.7001 6.15187C19.0673 6.3351 18.4925 6.67855 18.0312 7.149C17.499 6.60578 16.817 6.2334 16.0723 6.07936C15.3275 5.92531 14.5538 5.99658 13.8497 6.28408C13.1457 6.57157 12.5432 7.06226 12.1191 7.69357C11.6951 8.32487 11.4686 9.06818 11.4688 9.82869V12.5631H9.82812C8.81284 12.5631 7.83914 12.9664 7.12123 13.6843C6.40332 14.4022 6 15.3759 6 16.3912V18.0318C6 21.2227 7.26757 24.2829 9.52387 26.5392C11.7802 28.7955 14.8404 30.0631 18.0312 30.0631C21.2221 30.0631 24.2823 28.7955 26.5386 26.5392C28.7949 24.2829 30.0625 21.2227 30.0625 18.0318V12.0162C30.0625 11.0009 29.6592 10.0272 28.9413 9.30929C28.2234 8.59138 27.2497 8.18806 26.2344 8.18806ZM27.875 18.0318C27.875 20.6425 26.8379 23.1463 24.9918 24.9924C23.1458 26.8385 20.642 27.8756 18.0312 27.8756C15.4205 27.8756 12.9167 26.8385 11.0707 24.9924C9.22461 23.1463 8.1875 20.6425 8.1875 18.0318V16.3912C8.1875 15.9561 8.36035 15.5388 8.66803 15.2311C8.9757 14.9234 9.393 14.7506 9.82812 14.7506H11.4688V18.0318C11.4688 18.3219 11.584 18.6001 11.7891 18.8052C11.9942 19.0103 12.2724 19.1256 12.5625 19.1256C12.8526 19.1256 13.1308 19.0103 13.3359 18.8052C13.541 18.6001 13.6562 18.3219 13.6562 18.0318V9.82869C13.6562 9.39356 13.8291 8.97626 14.1368 8.66859C14.4445 8.36091 14.8618 8.18806 15.2969 8.18806C15.732 8.18806 16.1493 8.36091 16.457 8.66859C16.7646 8.97626 16.9375 9.39356 16.9375 9.82869V13.6568C16.9375 13.9469 17.0527 14.2251 17.2579 14.4302C17.463 14.6353 17.7412 14.7506 18.0312 14.7506C18.3213 14.7506 18.5995 14.6353 18.8046 14.4302C19.0098 14.2251 19.125 13.9469 19.125 13.6568V9.82869C19.125 9.39356 19.2979 8.97626 19.6055 8.66859C19.9132 8.36091 20.3305 8.18806 20.7656 8.18806C21.2007 8.18806 21.618 8.36091 21.9257 8.66859C22.2334 8.97626 22.4062 9.39356 22.4062 9.82869V13.6568C22.4062 13.9469 22.5215 14.2251 22.7266 14.4302C22.9317 14.6353 23.2099 14.7506 23.5 14.7506C23.7901 14.7506 24.0683 14.6353 24.2734 14.4302C24.4785 14.2251 24.5938 13.9469 24.5938 13.6568V12.0162C24.5938 11.5811 24.7666 11.1638 25.0743 10.8561C25.382 10.5484 25.7993 10.3756 26.2344 10.3756C26.6695 10.3756 27.0868 10.5484 27.3945 10.8561C27.7021 11.1638 27.875 11.5811 27.875 12.0162V18.0318Z" fill="#ADACB3"/>
</svg>
