<svg width="35" height="35" viewBox="0 0 35 35" fill="none" xmlns="http://www.w3.org/2000/svg">
<mask id="mask0_1268_4390" style="mask-type:luminance" maskUnits="userSpaceOnUse" x="2" y="2" width="31" height="29">
<path fill-rule="evenodd" clip-rule="evenodd" d="M10.2077 14.5837C10.2077 13.7787 10.861 13.1253 11.666 13.1253C12.471 13.1253 13.1243 13.7787 13.1243 14.5837C13.1243 15.3887 12.471 16.042 11.666 16.042C10.861 16.042 10.2077 15.3887 10.2077 14.5837ZM17.4993 13.1253C16.6943 13.1253 16.041 13.7787 16.041 14.5837C16.041 15.3887 16.6943 16.042 17.4993 16.042C18.3043 16.042 18.9577 15.3887 18.9577 14.5837C18.9577 13.7787 18.3043 13.1253 17.4993 13.1253ZM23.3327 13.1253C22.5277 13.1253 21.8743 13.7787 21.8743 14.5837C21.8743 15.3887 22.5277 16.042 23.3327 16.042C24.1377 16.042 24.791 15.3887 24.791 14.5837C24.791 13.7787 24.1377 13.1253 23.3327 13.1253ZM29.166 21.8753C29.166 22.6789 28.5112 23.3337 27.7077 23.3337H12.4739C11.6821 23.3337 10.9033 23.5495 10.2223 23.9578L5.83268 26.5916V7.29199C5.83268 6.48845 6.48747 5.83366 7.29102 5.83366H27.7077C28.5112 5.83366 29.166 6.48845 29.166 7.29199V21.8753ZM27.7077 2.91699H7.29102C4.87893 2.91699 2.91602 4.87991 2.91602 7.29199V29.167C2.91602 29.692 3.19893 30.1776 3.65539 30.4357C3.87852 30.5626 4.12643 30.6253 4.37435 30.6253C4.63393 30.6253 4.89352 30.5568 5.12539 30.4168L11.7229 26.4589C11.9504 26.3218 12.21 26.2503 12.4739 26.2503H27.7077C30.1198 26.2503 32.0827 24.2874 32.0827 21.8753V7.29199C32.0827 4.87991 30.1198 2.91699 27.7077 2.91699V2.91699Z" fill="white"/>
</mask>
<g mask="url(#mask0_1268_4390)">
<rect width="35" height="35" fill="#ADACB3"/>
</g>
</svg>
