<svg width="35" height="35" viewBox="0 0 35 35" fill="none" xmlns="http://www.w3.org/2000/svg">
<mask id="mask0_1255_4496" style="mask-type:luminance" maskUnits="userSpaceOnUse" x="2" y="4" width="31" height="29">
<path fill-rule="evenodd" clip-rule="evenodd" d="M23.3327 17.5C22.5277 17.5 21.8743 16.8467 21.8743 16.0417C21.8743 15.2367 22.5277 14.5833 23.3327 14.5833C24.1377 14.5833 24.791 15.2367 24.791 16.0417C24.791 16.8467 24.1377 17.5 23.3327 17.5M17.4993 17.5C16.6943 17.5 16.041 16.8467 16.041 16.0417C16.041 15.2367 16.6943 14.5833 17.4993 14.5833C18.3043 14.5833 18.9577 15.2367 18.9577 16.0417C18.9577 16.8467 18.3043 17.5 17.4993 17.5M11.666 17.5C10.861 17.5 10.2077 16.8467 10.2077 16.0417C10.2077 15.2367 10.861 14.5833 11.666 14.5833C12.471 14.5833 13.1243 15.2367 13.1243 16.0417C13.1243 16.8467 12.471 17.5 11.666 17.5M27.7077 4.375H7.29102C4.87893 4.375 2.91602 6.33792 2.91602 8.75V30.625C2.91602 31.15 3.19893 31.6356 3.65539 31.8937C3.87852 32.0206 4.12643 32.0833 4.37435 32.0833C4.63393 32.0833 4.89352 32.0148 5.12539 31.8748L11.7229 27.9169C11.9504 27.7798 12.21 27.7083 12.4739 27.7083H27.7077C30.1198 27.7083 32.0827 25.7454 32.0827 23.3333V8.75C32.0827 6.33792 30.1198 4.375 27.7077 4.375" fill="white"/>
</mask>
<g mask="url(#mask0_1255_4496)">
<rect width="35" height="35" fill="#ADACB3"/>
</g>
</svg>
