<svg width="35" height="35" viewBox="0 0 35 35" fill="none" xmlns="http://www.w3.org/2000/svg">
<mask id="mask0_1255_4540" style="mask-type:luminance" maskUnits="userSpaceOnUse" x="4" y="2" width="27" height="31">
<path fill-rule="evenodd" clip-rule="evenodd" d="M14.5837 8.75033C14.5837 7.14178 15.8918 5.83366 17.5004 5.83366C19.1089 5.83366 20.417 7.14178 20.417 8.75033V16.042C20.417 16.0895 20.4107 16.1348 20.4043 16.1799C20.4002 16.2097 20.396 16.2394 20.3937 16.2695L22.7197 18.5955C23.1004 17.8212 23.3337 16.9622 23.3337 16.042V8.75033C23.3337 5.53324 20.7174 2.91699 17.5004 2.91699C14.6595 2.91699 12.2941 4.96012 11.7779 7.65366L14.5837 10.4595V8.75033ZM27.7087 16.042C27.7087 15.237 27.0568 14.5837 26.2504 14.5837C25.4439 14.5837 24.792 15.237 24.792 16.042C24.792 17.3676 24.4099 18.5941 23.7887 19.6645L25.9222 21.798C27.0481 20.1589 27.7087 18.177 27.7087 16.042ZM17.6248 21.8633C17.5841 21.8693 17.5431 21.8753 17.5004 21.8753C14.2833 21.8753 11.667 19.2591 11.667 16.042V15.7912L17.7279 21.852C17.6932 21.8533 17.6591 21.8583 17.6248 21.8633ZM30.1981 28.136L6.86474 4.80262C6.29453 4.23241 5.37286 4.23241 4.80266 4.80262C4.23245 5.37283 4.23245 6.29449 4.80266 6.8647L28.136 30.198C28.4204 30.4824 28.7937 30.6253 29.167 30.6253C29.5404 30.6253 29.9137 30.4824 30.1981 30.198C30.7683 29.6278 30.7683 28.7062 30.1981 28.136ZM18.9587 29.167H21.8754C22.6775 29.167 23.3337 29.8232 23.3337 30.6253C23.3337 31.4274 22.6775 32.0837 21.8754 32.0837H13.1254C12.3233 32.0837 11.667 31.4274 11.667 30.6253C11.667 29.8232 12.3233 29.167 13.1254 29.167H16.042V26.1337C11.1027 25.422 7.29203 21.1753 7.29203 16.042C7.29203 15.237 7.94391 14.5837 8.75036 14.5837C9.55682 14.5837 10.2087 15.237 10.2087 16.042C10.2087 20.0626 13.4797 23.3337 17.5004 23.3337C18.0283 23.3337 18.5416 23.271 19.0389 23.163L21.362 25.4862C20.6022 25.7982 19.7943 26.0112 18.9587 26.1322V29.167Z" fill="white"/>
</mask>
<g mask="url(#mask0_1255_4540)">
<rect width="35" height="35" fill="#ADACB3"/>
</g>
</svg>
