<svg width="35" height="35" viewBox="0 0 35 35" fill="none" xmlns="http://www.w3.org/2000/svg">
<path fill-rule="evenodd" clip-rule="evenodd" d="M17.5 35C27.165 35 35 27.165 35 17.5C35 7.83502 27.165 0 17.5 0C7.83502 0 0 7.83502 0 17.5C0 27.165 7.83502 35 17.5 35ZM10.2399 21.1774C10.3864 21.0309 10.4688 20.8322 10.4688 20.625V14.375C10.4688 14.1678 10.3864 13.9691 10.2399 13.8226C10.0934 13.6761 9.8947 13.5938 9.6875 13.5938C9.4803 13.5938 9.28159 13.6761 9.13507 13.8226C8.98856 13.9691 8.90625 14.1678 8.90625 14.375V20.625C8.90625 20.8322 8.98856 21.0309 9.13507 21.1774C9.28159 21.3239 9.4803 21.4062 9.6875 21.4062C9.8947 21.4062 10.0934 21.3239 10.2399 21.1774ZM13.0413 7.57257C13.1878 7.42606 13.3865 7.34375 13.5938 7.34375C13.801 7.34375 13.9997 7.42606 14.1462 7.57257C14.2927 7.71909 14.375 7.9178 14.375 8.125V26.875C14.375 27.0822 14.2927 27.2809 14.1462 27.4274C13.9997 27.5739 13.801 27.6562 13.5938 27.6562C13.3865 27.6562 13.1878 27.5739 13.0413 27.4274C12.8948 27.2809 12.8125 27.0822 12.8125 26.875V8.125C12.8125 7.9178 12.8948 7.71909 13.0413 7.57257ZM16.9476 10.6976C17.0941 10.5511 17.2928 10.4688 17.5 10.4688C17.7072 10.4688 17.9059 10.5511 18.0524 10.6976C18.1989 10.8441 18.2812 11.0428 18.2812 11.25V23.75C18.2812 23.9572 18.1989 24.1559 18.0524 24.3024C17.9059 24.4489 17.7072 24.5312 17.5 24.5312C17.2928 24.5312 17.0941 24.4489 16.9476 24.3024C16.8011 24.1559 16.7188 23.9572 16.7188 23.75V11.25C16.7188 11.0428 16.8011 10.8441 16.9476 10.6976ZM20.8538 13.8226C21.0003 13.6761 21.199 13.5938 21.4062 13.5938C21.6135 13.5938 21.8122 13.6761 21.9587 13.8226C22.1052 13.9691 22.1875 14.1678 22.1875 14.375V20.625C22.1875 20.8322 22.1052 21.0309 21.9587 21.1774C21.8122 21.3239 21.6135 21.4062 21.4062 21.4062C21.199 21.4062 21.0003 21.3239 20.8538 21.1774C20.7073 21.0309 20.625 20.8322 20.625 20.625V14.375C20.625 14.1678 20.7073 13.9691 20.8538 13.8226ZM24.7601 12.2601C24.9066 12.1136 25.1053 12.0312 25.3125 12.0312C25.5197 12.0312 25.7184 12.1136 25.8649 12.2601C26.0114 12.4066 26.0938 12.6053 26.0938 12.8125V22.1875C26.0938 22.3947 26.0114 22.5934 25.8649 22.7399C25.7184 22.8864 25.5197 22.9688 25.3125 22.9688C25.1053 22.9688 24.9066 22.8864 24.7601 22.7399C24.6136 22.5934 24.5312 22.3947 24.5312 22.1875V12.8125C24.5312 12.6053 24.6136 12.4066 24.7601 12.2601Z" fill="#ADACB3"/>
</svg>
