<svg width="35" height="35" viewBox="0 0 35 35" fill="none" xmlns="http://www.w3.org/2000/svg">
<g clip-path="url(#clip0_1304_4690)">
<path d="M7.78711 14.0439V22.7939C7.78711 23.084 7.67188 23.3622 7.46676 23.5673C7.26164 23.7725 6.98344 23.8877 6.69336 23.8877C6.40328 23.8877 6.12508 23.7725 5.91996 23.5673C5.71484 23.3622 5.59961 23.084 5.59961 22.7939V14.0439C5.59961 13.7539 5.71484 13.4757 5.91996 13.2705C6.12508 13.0654 6.40328 12.9502 6.69336 12.9502C6.98344 12.9502 7.26164 13.0654 7.46676 13.2705C7.67188 13.4757 7.78711 13.7539 7.78711 14.0439ZM12.1621 4.2002C11.872 4.2002 11.5938 4.31543 11.3887 4.52055C11.1836 4.72567 11.0684 5.00386 11.0684 5.29395V31.5439C11.0684 31.834 11.1836 32.1122 11.3887 32.3173C11.5938 32.5225 11.872 32.6377 12.1621 32.6377C12.4522 32.6377 12.7304 32.5225 12.9355 32.3173C13.1406 32.1122 13.2559 31.834 13.2559 31.5439V5.29395C13.2559 5.00386 13.1406 4.72567 12.9355 4.52055C12.7304 4.31543 12.4522 4.2002 12.1621 4.2002ZM17.6309 8.5752C17.3408 8.5752 17.0626 8.69043 16.8575 8.89555C16.6523 9.10067 16.5371 9.37886 16.5371 9.66895V27.1689C16.5371 27.459 16.6523 27.7372 16.8575 27.9423C17.0626 28.1475 17.3408 28.2627 17.6309 28.2627C17.9209 28.2627 18.1991 28.1475 18.4043 27.9423C18.6094 27.7372 18.7246 27.459 18.7246 27.1689V9.66895C18.7246 9.37886 18.6094 9.10067 18.4043 8.89555C18.1991 8.69043 17.9209 8.5752 17.6309 8.5752ZM23.0996 12.9502C22.8095 12.9502 22.5313 13.0654 22.3262 13.2705C22.1211 13.4757 22.0059 13.7539 22.0059 14.0439V22.7939C22.0059 23.084 22.1211 23.3622 22.3262 23.5673C22.5313 23.7725 22.8095 23.8877 23.0996 23.8877C23.3897 23.8877 23.6679 23.7725 23.873 23.5673C24.0781 23.3622 24.1934 23.084 24.1934 22.7939V14.0439C24.1934 13.7539 24.0781 13.4757 23.873 13.2705C23.6679 13.0654 23.3897 12.9502 23.0996 12.9502ZM28.5684 10.7627C28.2783 10.7627 28.0001 10.8779 27.795 11.083C27.5898 11.2882 27.4746 11.5664 27.4746 11.8564V24.9814C27.4746 25.2715 27.5898 25.5497 27.795 25.7548C28.0001 25.96 28.2783 26.0752 28.5684 26.0752C28.8584 26.0752 29.1366 25.96 29.3418 25.7548C29.5469 25.5497 29.6621 25.2715 29.6621 24.9814V11.8564C29.6621 11.5664 29.5469 11.2882 29.3418 11.083C29.1366 10.8779 28.8584 10.7627 28.5684 10.7627Z" fill="#ADACB3"/>
</g>
<defs>
<clipPath id="clip0_1304_4690">
<rect width="35" height="35" fill="white"/>
</clipPath>
</defs>
</svg>
