<svg width="35" height="35" viewBox="0 0 35 35" fill="none" xmlns="http://www.w3.org/2000/svg">
<mask id="mask0_1255_4512" style="mask-type:luminance" maskUnits="userSpaceOnUse" x="7" y="2" width="21" height="31">
<path fill-rule="evenodd" clip-rule="evenodd" d="M17.4993 5.83366C15.8908 5.83366 14.5827 7.14178 14.5827 8.75033V16.042C14.5827 17.6505 15.8908 18.9587 17.4993 18.9587C19.1079 18.9587 20.416 17.6505 20.416 16.042V8.75033C20.416 7.14178 19.1079 5.83366 17.4993 5.83366ZM23.3327 16.042C23.3327 19.2591 20.7164 21.8753 17.4993 21.8753C14.2823 21.8753 11.666 19.2591 11.666 16.042V8.75033C11.666 5.53324 14.2823 2.91699 17.4993 2.91699C20.7164 2.91699 23.3327 5.53324 23.3327 8.75033V16.042ZM26.2493 14.5837C27.0558 14.5837 27.7077 15.237 27.7077 16.042C27.7077 21.1753 23.8971 25.422 18.9577 26.1337V29.167H22.0275C22.7464 29.167 23.3327 29.7532 23.3327 30.4722V30.7785C23.3327 31.4974 22.7464 32.0837 22.0275 32.0837H12.9712C12.2523 32.0837 11.666 31.4974 11.666 30.7785V30.4722C11.666 29.7532 12.2523 29.167 12.9712 29.167H16.041V26.1337C11.1016 25.422 7.29102 21.1753 7.29102 16.042C7.29102 15.237 7.94289 14.5837 8.74935 14.5837C9.55581 14.5837 10.2077 15.237 10.2077 16.042C10.2077 20.0626 13.4787 23.3337 17.4993 23.3337C21.52 23.3337 24.791 20.0626 24.791 16.042C24.791 15.237 25.4429 14.5837 26.2493 14.5837Z" fill="white"/>
</mask>
<g mask="url(#mask0_1255_4512)">
<rect width="35" height="35" fill="#ADACB3"/>
</g>
</svg>
