<svg width="35" height="35" viewBox="0 0 35 35" fill="none" xmlns="http://www.w3.org/2000/svg">
<path d="M26.25 20.7814V14.2189C26.25 13.9288 26.3652 13.6506 26.5704 13.4455C26.7755 13.2404 27.0537 13.1252 27.3438 13.1252C27.6338 13.1252 27.912 13.2404 28.1171 13.4455C28.3223 13.6506 28.4375 13.9288 28.4375 14.2189V20.7814C28.4375 21.0715 28.3223 21.3497 28.1171 21.5548C27.912 21.7599 27.6338 21.8752 27.3438 21.8752C27.0537 21.8752 26.7755 21.7599 26.5704 21.5548C26.3652 21.3497 26.25 21.0715 26.25 20.7814ZM31.7188 10.9377C31.4287 10.9377 31.1505 11.0529 30.9454 11.258C30.7402 11.4631 30.625 11.7413 30.625 12.0314V22.9689C30.625 23.259 30.7402 23.5372 30.9454 23.7423C31.1505 23.9474 31.4287 24.0627 31.7188 24.0627C32.0088 24.0627 32.287 23.9474 32.4921 23.7423C32.6973 23.5372 32.8125 23.259 32.8125 22.9689V12.0314C32.8125 11.7413 32.6973 11.4631 32.4921 11.258C32.287 11.0529 32.0088 10.9377 31.7188 10.9377ZM30.3406 28.7959C30.4392 28.9018 30.5159 29.0263 30.566 29.162C30.6162 29.2978 30.6389 29.4422 30.6329 29.5868C30.6268 29.7314 30.5921 29.8734 30.5308 30.0045C30.4695 30.1356 30.3828 30.2532 30.2757 30.3505C30.1686 30.4479 30.0432 30.523 29.9068 30.5715C29.7705 30.6201 29.6258 30.6411 29.4813 30.6333C29.3368 30.6255 29.1952 30.5891 29.0649 30.5262C28.9345 30.4634 28.8179 30.3752 28.7219 30.267L22.9688 23.9382V30.6252C22.9686 30.8298 22.911 31.0303 22.8026 31.2039C22.6941 31.3775 22.5392 31.5171 22.3553 31.607C22.1714 31.6969 21.966 31.7333 21.7624 31.7123C21.5589 31.6912 21.3653 31.6135 21.2037 31.4879L11.6553 24.0627H5.46875C4.88859 24.0627 4.33219 23.8322 3.92195 23.422C3.51172 23.0117 3.28125 22.4553 3.28125 21.8752V13.1252C3.28125 12.545 3.51172 11.9886 3.92195 11.5784C4.33219 11.1681 4.88859 10.9377 5.46875 10.9377H11.1494L6.84688 6.20445C6.65588 5.98915 6.55744 5.70725 6.5729 5.41985C6.58836 5.13246 6.71648 4.86274 6.92947 4.66918C7.14246 4.47561 7.42317 4.3738 7.71073 4.38581C7.99829 4.39783 8.26952 4.5227 8.46562 4.73336L30.3406 28.7959ZM20.7812 21.532L13.1387 13.1252H5.46875V21.8752H12.0312C12.2746 21.8748 12.511 21.9561 12.7025 22.1062L20.7812 28.3884V21.532ZM17.098 9.47613L20.7812 6.60504V14.599C20.7812 14.8891 20.8965 15.1673 21.1016 15.3724C21.3067 15.5775 21.5849 15.6927 21.875 15.6927C22.1651 15.6927 22.4433 15.5775 22.6484 15.3724C22.8535 15.1673 22.9688 14.8891 22.9688 14.599V4.37516C22.9686 4.1705 22.911 3.96998 22.8026 3.79642C22.6941 3.62285 22.5392 3.48319 22.3553 3.39332C22.1714 3.30345 21.966 3.26697 21.7624 3.28803C21.5589 3.3091 21.3653 3.38685 21.2037 3.51246L15.7555 7.75074C15.5311 7.93034 15.3864 8.19104 15.3527 8.47647C15.319 8.76191 15.399 9.04913 15.5754 9.27603C15.7519 9.50293 16.0105 9.65127 16.2954 9.68897C16.5804 9.72667 16.8687 9.65071 17.098 9.4775V9.47613Z" fill="#ADACB3"/>
</svg>
