<svg width="35" height="35" viewBox="0 0 35 35" fill="none" xmlns="http://www.w3.org/2000/svg">
<mask id="mask0_1304_4655" style="mask-type:luminance" maskUnits="userSpaceOnUse" x="7" y="7" width="23" height="21">
<path fill-rule="evenodd" clip-rule="evenodd" d="M28.8466 18.0472L23.0133 10.7555C22.5102 10.1255 21.5914 10.0249 20.9643 10.528C20.3343 11.0297 20.2323 11.9485 20.7354 12.577L24.6743 17.5003H11.666C10.8625 17.5003 10.2077 16.8455 10.2077 16.042V8.75033C10.2077 7.94387 9.55435 7.29199 8.74935 7.29199C7.94435 7.29199 7.29102 7.94387 7.29102 8.75033V16.042C7.29102 18.4541 9.25393 20.417 11.666 20.417H24.6743L20.7354 25.3389C20.2323 25.9674 20.3343 26.8862 20.9643 27.3878C21.2327 27.6037 21.555 27.7087 21.8743 27.7087C22.3016 27.7087 22.726 27.5205 23.0133 27.1603L28.8466 19.8687C29.2725 19.3364 29.2725 18.5795 28.8466 18.0472Z" fill="white"/>
</mask>
<g mask="url(#mask0_1304_4655)">
<rect width="35" height="35" fill="#ADACB3"/>
</g>
</svg>
