<svg width="35" height="35" viewBox="0 0 35 35" fill="none" xmlns="http://www.w3.org/2000/svg">
<path d="M29.2119 18.2737L18.2744 29.2112C18.1728 29.3128 18.0522 29.3934 17.9194 29.4484C17.7866 29.5034 17.6443 29.5317 17.5006 29.5317C17.3569 29.5317 17.2146 29.5034 17.0818 29.4484C16.949 29.3934 16.8284 29.3128 16.7268 29.2112C16.6252 29.1096 16.5445 28.9889 16.4896 28.8562C16.4346 28.7234 16.4062 28.5811 16.4062 28.4374C16.4062 28.2937 16.4346 28.1514 16.4896 28.0186C16.5445 27.8858 16.6252 27.7652 16.7268 27.6636L27.6643 16.7261C27.7659 16.6244 27.8865 16.5438 28.0193 16.4888C28.1521 16.4338 28.2944 16.4055 28.4381 16.4055C28.5818 16.4055 28.7241 16.4338 28.8569 16.4888C28.9897 16.5438 29.1103 16.6244 29.2119 16.7261C29.3136 16.8277 29.3942 16.9483 29.4492 17.0811C29.5042 17.2139 29.5325 17.3562 29.5325 17.4999C29.5325 17.6436 29.5042 17.7859 29.4492 17.9187C29.3942 18.0515 29.3136 18.1721 29.2119 18.2737ZM27.0244 4.69481C26.9229 4.59311 26.8022 4.51244 26.6694 4.4574C26.5367 4.40235 26.3943 4.37402 26.2506 4.37402C26.1069 4.37402 25.9645 4.40235 25.8318 4.4574C25.699 4.51244 25.5784 4.59311 25.4768 4.69481L4.69553 25.4761C4.4903 25.6813 4.375 25.9596 4.375 26.2499C4.375 26.5401 4.4903 26.8185 4.69553 27.0237C4.90076 27.2289 5.17912 27.3442 5.46936 27.3442C5.7596 27.3442 6.03795 27.2289 6.24319 27.0237L27.0244 6.24246C27.1261 6.14088 27.2068 6.02025 27.2618 5.88747C27.3169 5.7547 27.3452 5.61237 27.3452 5.46863C27.3452 5.3249 27.3169 5.18257 27.2618 5.04979C27.2068 4.91701 27.1261 4.79639 27.0244 4.69481Z" fill="#ADACB3"/>
</svg>
