<svg width="35" height="35" viewBox="0 0 35 35" fill="none" xmlns="http://www.w3.org/2000/svg">
<mask id="mask0_1350_4691" style="mask-type:luminance" maskUnits="userSpaceOnUse" x="2" y="2" width="31" height="31">
<path fill-rule="evenodd" clip-rule="evenodd" d="M17.4993 15.3128C16.2933 15.3128 15.3118 16.2943 15.3118 17.5003C15.3118 18.7064 16.2933 19.6878 17.4993 19.6878C18.7054 19.6878 19.6868 18.7064 19.6868 17.5003C19.6868 16.2943 18.7054 15.3128 17.4993 15.3128M17.4993 22.6045C14.6848 22.6045 12.3952 20.3149 12.3952 17.5003C12.3952 14.6857 14.6848 12.3962 17.4993 12.3962C20.3139 12.3962 22.6035 14.6857 22.6035 17.5003C22.6035 20.3149 20.3139 22.6045 17.4993 22.6045M29.6283 13.6722H28.0475C27.8331 13.6722 27.6873 13.5016 27.5983 13.2872C27.5312 13.1253 27.5137 12.9007 27.6668 12.7476L28.7898 11.6305C29.2535 11.1682 29.5102 10.5514 29.5102 9.89803C29.5102 9.24178 29.2564 8.62637 28.7927 8.16408L26.8371 6.20845C25.8833 5.25178 24.3273 5.2547 23.3706 6.20845L22.2477 7.33283C22.096 7.48595 21.8714 7.46699 21.66 7.37949C21.4996 7.31387 21.3275 7.16658 21.3275 6.9522V5.36116C21.3275 4.01366 20.2323 2.91699 18.8833 2.91699H16.1241C14.7708 2.91699 13.6712 4.01803 13.6712 5.37137V6.9522C13.6712 7.16658 13.5006 7.31241 13.2862 7.40137C13.1243 7.46991 12.8983 7.48741 12.7466 7.33283L11.631 6.21137C11.1673 5.74616 10.5518 5.49095 9.89706 5.49095H9.89414C9.23935 5.49095 8.62393 5.7447 8.16164 6.20845L6.20747 8.16262C5.25227 9.11637 5.25227 10.671 6.20747 11.6291L7.33185 12.752C7.48352 12.9037 7.46602 13.1297 7.37852 13.3397C7.31289 13.5001 7.1656 13.6722 6.95122 13.6722H5.36018C4.01268 13.6722 2.91602 14.7674 2.91602 16.1164V18.8755C2.91602 20.2289 4.01706 21.3284 5.37039 21.3284H6.95122C7.1656 21.3284 7.31143 21.4991 7.40039 21.7134C7.46747 21.8753 7.48497 22.0999 7.33185 22.253L6.21039 23.3687C5.74518 23.8324 5.48997 24.4478 5.48997 25.1026C5.48852 25.7589 5.74372 26.3743 6.20747 26.838L8.16164 28.7922C9.11539 29.7489 10.6714 29.7459 11.6281 28.7922L12.751 27.6678C12.9041 27.5176 13.1287 27.5351 13.3387 27.6212C13.4991 27.6868 13.6712 27.8341 13.6712 28.0484V29.6395C13.6712 30.987 14.7664 32.0837 16.1154 32.0837H18.8746C20.2279 32.0837 21.3275 30.9826 21.3275 29.6293V28.0484C21.3275 27.8341 21.4981 27.6882 21.7125 27.5993C21.8729 27.5322 22.0989 27.5147 22.2521 27.6678L23.3677 28.7893C23.8314 29.2545 24.4468 29.5097 25.1016 29.5097H25.1046C25.7593 29.5097 26.3748 29.2559 26.8371 28.7922L28.7912 26.838C29.7464 25.8843 29.7464 24.3297 28.7912 23.3716L27.6668 22.2487C27.5152 22.097 27.5327 21.8709 27.6012 21.7091C27.6012 21.7062 27.6202 21.6624 27.6202 21.6609C27.6858 21.5005 27.8331 21.3284 28.0475 21.3284H29.6385C30.986 21.3284 32.0827 20.2332 32.0827 18.8843V16.1251C32.0827 14.7718 30.9816 13.6722 29.6283 13.6722" fill="white"/>
</mask>
<g mask="url(#mask0_1350_4691)">
<rect width="35" height="35" fill="#ADACB3"/>
</g>
</svg>
