<svg width="35" height="35" viewBox="0 0 35 35" fill="none" xmlns="http://www.w3.org/2000/svg">
<mask id="mask0_1350_4692" style="mask-type:luminance" maskUnits="userSpaceOnUse" x="2" y="2" width="31" height="31">
<path fill-rule="evenodd" clip-rule="evenodd" d="M16.5879 29.167H18.4123V28.0484C18.4123 26.6849 19.2508 25.4599 20.5473 24.9247C21.8889 24.3662 23.3546 24.6403 24.32 25.6116L25.106 26.4005L26.401 25.1055L25.6062 24.3122C24.6393 23.3468 24.3666 21.8826 24.9106 20.5832C24.9106 20.5832 24.9121 20.5818 24.9121 20.5803L24.9281 20.5395C25.4589 19.2518 26.6854 18.4118 28.0489 18.4118H29.166V16.5889H28.0489C26.6854 16.5889 25.4589 15.7503 24.9252 14.4539C24.3637 13.1122 24.6393 11.6466 25.6106 10.6797L26.3996 9.89366L25.106 8.60012L24.3112 9.39491C23.3458 10.3603 21.8831 10.633 20.5837 10.0905C19.2523 9.54074 18.4123 8.31574 18.4123 6.9522V5.83366H16.5879V6.9522C16.5879 8.31574 15.7493 9.54074 14.4529 10.076C13.1127 10.6374 11.6471 10.3618 10.6802 9.38908L9.89414 8.60012L8.59914 9.89512L9.39393 10.6885C10.3593 11.6539 10.6335 13.118 10.0896 14.4174C9.54122 15.7489 8.31477 16.5889 6.95122 16.5889H5.83268V18.4118H6.95122C8.31477 18.4118 9.54122 19.2503 10.075 20.5468C10.6364 21.8884 10.3608 23.3541 9.38956 24.3209L8.6006 25.107L9.89414 26.4005L10.6889 25.6057C11.6543 24.6403 13.1171 24.3676 14.4164 24.9101C15.7479 25.4599 16.5879 26.6849 16.5879 28.0484V29.167ZM18.8746 32.0837H16.1154C14.7679 32.0837 13.6712 30.987 13.6712 29.6395V28.0484C13.6712 27.8341 13.5006 27.6868 13.3402 27.6212C13.1302 27.5351 12.9056 27.5176 12.751 27.6678L11.6281 28.7922C10.6714 29.7459 9.11685 29.7489 8.16164 28.7922L6.20747 26.838C5.74372 26.3743 5.48997 25.7589 5.48997 25.1026C5.49143 24.4478 5.74664 23.8324 6.21185 23.3687L7.33185 22.253C7.48497 22.0999 7.46893 21.8753 7.40039 21.7134C7.31289 21.4991 7.16706 21.3284 6.95122 21.3284H5.37039C4.01706 21.3284 2.91602 20.2289 2.91602 18.8755V16.1164C2.91602 14.7674 4.01268 13.6722 5.36164 13.6722H6.95122C7.1656 13.6722 7.31289 13.5001 7.37852 13.3397C7.46602 13.1297 7.48352 12.9037 7.33185 12.752L6.20747 11.6291C5.25372 10.671 5.25372 9.11637 6.20747 8.16262L8.16164 6.20845C8.62539 5.7447 9.23935 5.49095 9.89414 5.49095H9.89706C10.5518 5.49095 11.1687 5.74616 11.631 6.21137L12.7466 7.33283C12.8998 7.48741 13.1258 7.46991 13.2877 7.40137C13.5006 7.31241 13.6712 7.16658 13.6712 6.9522V5.37137C13.6712 4.01803 14.7723 2.91699 16.1256 2.91699H18.8848C20.2323 2.91699 21.3289 4.01366 21.3289 5.36116V6.9522C21.3289 7.16658 21.4996 7.31387 21.66 7.37949C21.8714 7.46699 22.096 7.48595 22.2491 7.33283L23.3721 6.20845C24.3287 5.2547 25.8833 5.25178 26.8385 6.20845L28.7941 8.16408C29.2579 8.62637 29.5116 9.24178 29.5102 9.89803C29.5102 10.5514 29.255 11.1682 28.7898 11.6305L27.6683 12.7476C27.5152 12.9007 27.5312 13.1253 27.5998 13.2872C27.6873 13.5016 27.8331 13.6722 28.0489 13.6722H29.6298C30.9831 13.6722 32.0827 14.7718 32.0827 16.1251V18.8843C32.0827 20.2332 30.9875 21.3284 29.6385 21.3284H28.0489C27.8346 21.3284 27.6873 21.5005 27.6216 21.6609C27.6202 21.6624 27.6027 21.7062 27.6012 21.7091C27.5341 21.8709 27.5166 22.097 27.6683 22.2487L28.7927 23.3716C29.7464 24.3297 29.7464 25.8843 28.7927 26.838L26.8385 28.7922C26.3748 29.2559 25.7608 29.5097 25.106 29.5097H25.1031C24.4483 29.5097 23.8314 29.2545 23.3691 28.7893L22.2535 27.6678C22.1004 27.5147 21.8729 27.5322 21.7125 27.5993C21.4996 27.6882 21.3289 27.8341 21.3289 28.0484V29.6293C21.3289 30.9826 20.2279 32.0837 18.8746 32.0837V32.0837ZM17.5001 15.3128C16.294 15.3128 15.3126 16.2943 15.3126 17.5003C15.3126 18.7064 16.294 19.6878 17.5001 19.6878C18.7061 19.6878 19.6876 18.7064 19.6876 17.5003C19.6876 16.2943 18.7061 15.3128 17.5001 15.3128M17.5001 22.6045C14.6855 22.6045 12.3959 20.3149 12.3959 17.5003C12.3959 14.6857 14.6855 12.3962 17.5001 12.3962C20.3147 12.3962 22.6042 14.6857 22.6042 17.5003C22.6042 20.3149 20.3147 22.6045 17.5001 22.6045" fill="white"/>
</mask>
<g mask="url(#mask0_1350_4692)">
<rect width="35" height="35" fill="#ADACB3"/>
</g>
</svg>
