<svg width="35" height="35" viewBox="0 0 35 35" fill="none" xmlns="http://www.w3.org/2000/svg">
<mask id="mask0_1356_4718" style="mask-type:luminance" maskUnits="userSpaceOnUse" x="2" y="4" width="32" height="27">
<path fill-rule="evenodd" clip-rule="evenodd" d="M19.6875 26.398L12.2485 21.2967C12.005 21.1319 11.7177 21.0415 11.4231 21.0415H5.10417V13.9584H11.4231C11.7177 13.9584 12.005 13.868 12.2485 13.7032L19.6875 8.60194V26.398ZM21.8254 4.54339C21.3456 4.28964 20.7667 4.32319 20.3219 4.62944L10.971 11.0417H3.64583C2.84083 11.0417 2.1875 11.6936 2.1875 12.5001V22.4999C2.1875 23.3063 2.84083 23.9582 3.64583 23.9582H10.971L20.3219 30.3705C20.5683 30.5396 20.8571 30.6242 21.1458 30.6242C21.3792 30.6242 21.6125 30.5688 21.8254 30.4565C22.3037 30.2042 22.6042 29.7084 22.6042 29.1659V5.83256C22.6042 5.29152 22.3037 4.79569 21.8254 4.54339ZM26.6573 12.2104C26.1513 11.5834 25.234 11.4856 24.6069 11.9888C23.9798 12.4934 23.8792 13.4106 24.3838 14.0392C25.8946 15.9146 25.8946 19.085 24.3838 20.9604C23.8792 21.589 23.9798 22.5063 24.6069 23.0109C24.8767 23.2281 25.199 23.3331 25.5198 23.3331C25.9456 23.3331 26.3686 23.1465 26.6573 22.7892C29.0431 19.8229 29.0431 15.1767 26.6573 12.2104ZM26.585 7.82012C27.0983 7.19887 28.0185 7.11283 28.6383 7.62617C31.8 10.2453 33.5412 13.7526 33.5412 17.5005C33.5412 21.247 31.8 24.7543 28.6383 27.3735C28.3656 27.598 28.036 27.7089 27.7094 27.7089C27.2894 27.7089 26.8737 27.528 26.585 27.1795C26.0716 26.5597 26.1577 25.641 26.7789 25.1262C29.2581 23.0714 30.6246 20.3632 30.6246 17.5005C30.6246 14.6364 29.2581 11.9282 26.7789 9.87346C26.1577 9.35867 26.0716 8.43992 26.585 7.82012Z" fill="white"/>
</mask>
<g mask="url(#mask0_1356_4718)">
<rect width="35" height="35" fill="#ADACB3"/>
</g>
</svg>
